Arena: Chelsea Hotel. BBC 832x468 x264 aac mp4 w/subtitles [aularon]


- - -
Synopsis
- - -
Documentary about the Chelsea Hotel in New York, a legendary haven for the some of the greatest artistic talent of the 20th century, from Mark Twain to Dylan Thomas.

Andy Warhol and William Burroughs have dinner in the room where Arthur C Clarke wrote 2001, and Quentin Crisp, who lived in the hotel for more than 35 years, recalls moving in.


- - -
URL
- - -      
http://www.bbc.co.uk/programmes/b0074lzv


- - -
Technical Details
- - -
General
Complete name                    : BBC.Arena.Chelsea.Hotel/Arena_-_Chelsea_Hotel_b0074lzv_default.mp4
Format                           : MPEG-4
Format profile                   : Base Media
Codec ID                         : isom
File size                        : 593 MiB
Duration                         : 55mn 9s
Overall bit rate                 : 1 502 Kbps
Movie name                       : Arena: Chelsea Hotel
Album                            : Arena
Performer                        : Arena
Genre                            : Factual,Arts, Culture & the Media
Recorded date                    : 2011-09-01T23:00:00+01:00
Tagged date                      : UTC 2011-09-02 11:24:36
Writing application              : Lavf53.10.0
Cover                            : Yes
Comment                          : Recorded using get_iplayer, by Aularon.
rtng                             : 2
stik                             : 1
desc                             : Documentary about the Chelsea Hotel in New York, a legendary haven for the some of the greatest artistic talent of the 20th century, from Mark Twain to Dylan Thomas.
tvnn                             : BBC Four
tvsh                             : Arena
tven                             : b0074lzv
catg                             : Factual,Arts, Culture & the Media

Video
ID                               : 1
Format                           : AVC
Format/Info                      : Advanced Video Codec
Format profile                   : Main@L3.0
Format settings, CABAC           : Yes
Format settings, ReFrames        : 4 frames
Codec ID                         : avc1
Codec ID/Info                    : Advanced Video Coding
Duration                         : 55mn 9s
Bit rate mode                    : Constant
Bit rate                         : 1 404 Kbps
Width                            : 832 pixels
Height                           : 468 pixels
Display aspect ratio             : 16:9
Frame rate mode                  : Constant
Frame rate                       : 25.000 fps
Standard                         : PAL
Color space                      : YUV
Chroma subsampling               : 4:2:0
Bit depth                        : 8 bits
Scan type                        : Progressive
Bits/(Pixel*Frame)               : 0.144
Stream size                      : 553 MiB (93%)

Audio
ID                               : 2
Format                           : AAC
Format/Info                      : Advanced Audio Codec
Format profile                   : HE-AAC / LC
Codec ID                         : 40
Duration                         : 55mn 9s
Bit rate mode                    : Constant
Bit rate                         : 96.0 Kbps
Channel(s)                       : 2 channels
Channel positions                : Front: L R
Sampling rate                    : 48.0 KHz / 24.0 KHz
Compression mode                 : Lossy
Stream size                      : 37.4 MiB (6%)


                  ______                                     
                 (____  \                                    
                  ____)  )_____  ____ _____ _   _  ___ _____ 
                 |  __  (| ___ |/ ___|____ | | | |/___) ___ |
            _ _ _| |__)  ) ____( (___/ ___ | |_| |___ | ____|
           (_|_|_)______/|_____)\____)_____|____/(___/|_____)
                                                              
                   ______ _                 _             
                  / _____) |               (_)            
                 ( (____ | |__  _____  ____ _ ____   ____ 
                  \____ \|  _ \(____ |/ ___) |  _ \ / _  |
                  _____) ) | | / ___ | |   | | | | ( (_| |
                 (______/|_| |_\_____|_|   |_|_| |_|\___ |
                                                   (_____|
                                  _      
                                 (_)     
                                  _  ___ 
                                 | |/___)
                                 | |___ |
                                 |_(___/ 

                    _______             _               
                   (_______)           (_)              
                    _       _____  ____ _ ____   ____   
                   | |     (____ |/ ___) |  _ \ / _  |  
                   | |_____/ ___ | |   | | | | ( (_| |_ 
                    \______)_____|_|   |_|_| |_|\___ (_)
                                               (_____|  

                                    ;)
